<svg xmlns="http://www.w3.org/2000/svg" width="312" height="313" viewBox="0 0 312 313"><defs><style>.a{fill:#fafafa;}.b{fill:#e81524;}.c{fill:#77f5ca;}</style></defs><g transform="translate(-364 -3171)"><rect class="a" width="312" height="313" transform="translate(364 3171)"/><rect class="b" width="123" height="77" rx="4" transform="translate(454 3294)"/><circle class="b" cx="39.5" cy="39.5" r="39.5" transform="translate(504 3311)"/><circle class="c" cx="36" cy="36" r="36" transform="translate(513 3316)"/><g transform="translate(444.949 3261.183)"><g transform="translate(0 0)"><path d="M182.6,124.285H134.424a4.261,4.261,0,0,1-4.279-4.279V17.631a4.261,4.261,0,0,1,4.279-4.279H261.045a4.261,4.261,0,0,1,4.279,4.279V66.917a1.743,1.743,0,1,1-3.486,0V17.631A.682.682,0,0,0,261.2,17H134.424c-.475-.158-.792.158-.792.634V120.164a.682.682,0,0,0,.634.634H182.6a1.759,1.759,0,0,1,1.743,1.743A1.582,1.582,0,0,1,182.6,124.285Z" transform="translate(-130.145 -13.352)"/></g><g transform="translate(14.897 12.679)"><ellipse cx="3.328" cy="3.328" rx="3.328" ry="3.328" transform="translate(29.001)"/><ellipse cx="3.328" cy="3.328" rx="3.328" ry="3.328" transform="translate(14.421 0.158)"/><ellipse cx="3.328" cy="3.328" rx="3.328" ry="3.328" transform="translate(0 0.317)"/></g><g transform="translate(0 28.684)"><path d="M263.422,34.938H131.888a1.743,1.743,0,0,1,0-3.486H263.264a1.759,1.759,0,0,1,1.743,1.743A1.629,1.629,0,0,1,263.422,34.938Z" transform="translate(-130.145 -31.452)"/></g><g transform="translate(66.401 14.421)"><path d="M226.243,25.938H173.788a1.743,1.743,0,1,1,0-3.486h52.3a1.759,1.759,0,0,1,1.743,1.743A1.54,1.54,0,0,1,226.243,25.938Z" transform="translate(-172.045 -22.452)"/></g><g transform="translate(58.319 49.444)"><path d="M207.356,125.533a40.49,40.49,0,1,1,40.411-40.57A40.377,40.377,0,0,1,207.356,125.533Zm0-77.336a36.925,36.925,0,1,0,36.925,36.925A36.962,36.962,0,0,0,207.356,48.2Z" transform="translate(-166.945 -44.552)"/></g><g transform="translate(101.741 93.025)"><path d="M196.088,119.753a1.743,1.743,0,1,1,0-3.486A42.474,42.474,0,0,0,238.559,73.8a1.743,1.743,0,0,1,3.487,0C242.2,98.993,221.444,119.753,196.088,119.753Z" transform="translate(-194.345 -72.052)"/></g><g transform="translate(129.315 120.441)"><path d="M234.09,118.511a6.841,6.841,0,0,1-4.913-2.06L212.22,99.494a1.793,1.793,0,1,1,2.536-2.536l16.957,16.957a3.362,3.362,0,1,0,4.754-4.754l-17.115-16.8a1.793,1.793,0,0,1,2.536-2.536l16.957,16.957a6.791,6.791,0,0,1,0,9.667A6.254,6.254,0,0,1,234.09,118.511Z" transform="translate(-211.745 -89.352)"/></g></g></g></svg>