<svg xmlns="http://www.w3.org/2000/svg" width="312" height="313" viewBox="0 0 312 313"><defs><style>.a{fill:#fafafa;}.b{fill:#e81524;}.c{fill:#77f5ca;}.d{fill:#0b5fff;}</style></defs><g transform="translate(-1244 -3171)"><rect class="a" width="312" height="313" transform="translate(1244 3171)"/><path class="b" d="M6408.71,4830.323v-46.676s-1.668-6.895,8.052-6.455,41.252,0,41.252,0,5.577-1.055,6.076,6.455,0,28.467,0,28.467-1.063,4.334-9.291,4.691-31.336,0-31.336,0-10.4,3.877-12.68,10.438S6408.71,4830.323,6408.71,4830.323Z" transform="translate(-4991.541 -1471.898)"/><path class="c" d="M6464.979,4830.323v-46.676s1.691-6.895-8.164-6.455-41.829,0-41.829,0-5.655-1.055-6.16,6.455,0,28.467,0,28.467,1.078,4.334,9.421,4.691,31.773,0,31.773,0,10.546,3.877,12.856,10.438S6464.979,4830.323,6464.979,4830.323Z" transform="translate(-5068.068 -1506.524)"/><path class="d" d="M6464.175,4830.323v-46.676s1.667-6.895-8.046-6.455-41.233,0-41.233,0-5.573-1.055-6.072,6.455,0,28.467,0,28.467,1.063,4.334,9.287,4.691,31.32,0,31.32,0,10.4,3.877,12.672,10.438S6464.175,4830.323,6464.175,4830.323Z" transform="translate(-5068.068 -1441.298)"/><g transform="translate(1334.775 3251.032)"><path d="M464.04-45.882H442.3V-90.03a8.958,8.958,0,0,0-8.946-8.946H363.062a8.946,8.946,0,0,0-8.946,8.946v9H333.652a6.392,6.392,0,0,0-6.39,6.39v28.929a6.391,6.391,0,0,0,6.39,6.39h20.464v23.1H333.652a6.392,6.392,0,0,0-6.39,6.39V19.1a6.391,6.391,0,0,0,6.39,6.39h20.464v17.5a8.946,8.946,0,0,0,8.946,8.946h70.291a8.956,8.956,0,0,0,8.946-8.946V-2.969a1.262,1.262,0,0,0-.907-1.2h22.652a6.389,6.389,0,0,0,6.39-6.39V-39.492a6.391,6.391,0,0,0-6.39-6.39Zm-134.222.169V-74.643a3.835,3.835,0,0,1,3.834-3.834h49.556a3.834,3.834,0,0,1,3.834,3.834v44.608c-5.345-8.348-12.1-11.845-22.36-11.845h-31.03A3.834,3.834,0,0,1,329.818-45.713Zm0,64.811V-9.834a3.835,3.835,0,0,1,3.834-3.834h21.675l.066.013a.111.111,0,0,0,.061-.013h27.753a3.834,3.834,0,0,1,3.834,3.834v44.61c-5.345-8.351-12.1-11.845-22.36-11.845h-31.03A3.834,3.834,0,0,1,329.818,19.1ZM439.743-2.969V42.986a6.389,6.389,0,0,1-6.39,6.39H363.062a6.391,6.391,0,0,1-6.39-6.39v-17.5h8.013c10.891,0,17.2,4.128,22.493,14.728a1.28,1.28,0,0,0,1.142.705,1.185,1.185,0,0,0,.3-.031,1.274,1.274,0,0,0,.984-1.242V-9.834a6.391,6.391,0,0,0-6.39-6.39H356.672v-23.1h8.013c10.891,0,17.2,4.131,22.493,14.728a1.28,1.28,0,0,0,1.142.705,1.081,1.081,0,0,0,.3-.033,1.275,1.275,0,0,0,.984-1.245V-74.643a6.391,6.391,0,0,0-6.39-6.39H356.672v-9a6.392,6.392,0,0,1,6.39-6.39h70.291a6.391,6.391,0,0,1,6.39,6.39v44.148H414.484a6.392,6.392,0,0,0-6.39,6.39V9.983a1.278,1.278,0,0,0,2.421.573c5.3-10.6,11.6-14.728,22.493-14.728h7.635A1.263,1.263,0,0,0,439.743-2.969Zm28.132-7.594a3.832,3.832,0,0,1-3.834,3.834H433.01c-10.26,0-17.016,3.5-22.36,11.845V-39.492a3.835,3.835,0,0,1,3.834-3.834H464.04a3.834,3.834,0,0,1,3.834,3.834ZM341.913-65.8a1.279,1.279,0,0,1,1.278-1.278h30.281A1.277,1.277,0,0,1,374.75-65.8a1.277,1.277,0,0,1-1.278,1.278H343.191A1.279,1.279,0,0,1,341.913-65.8Zm22.572,11.827H343.191a1.279,1.279,0,0,1-1.278-1.278,1.278,1.278,0,0,1,1.278-1.278h21.294a1.277,1.277,0,0,1,1.278,1.278A1.277,1.277,0,0,1,364.485-53.974Zm8.987,70.728a1.277,1.277,0,0,0,1.278-1.278V-6.212a1.277,1.277,0,0,0-1.278-1.278H343.38A1.278,1.278,0,0,0,342.1-6.212V15.475a1.278,1.278,0,0,0,1.278,1.278ZM344.666,14.2V8.574c.072-.036.156-.026.222-.077l7.126-5.4,5.467,4.869a1.276,1.276,0,0,0,1.442.181l13.271-6.937v12.98ZM372.194-4.934v3.267l-13.67,7.157L352.93.5a1.28,1.28,0,0,0-1.623-.064l-6.646,5.035v-10.4Zm77.223-21.2L433-35.451a1.27,1.27,0,0,0-1.278,0,1.283,1.283,0,0,0-.634,1.1v18.623a1.279,1.279,0,0,0,1.278,1.278,1.227,1.227,0,0,0,.629-.169l16.412-9.309a1.28,1.28,0,0,0,.481-1.743,1.306,1.306,0,0,0-.481-.478ZM433.654-17.9V-32.146L446.2-25.027ZM406.987-90.907a1.277,1.277,0,0,1-1.278,1.278H390.7a1.278,1.278,0,0,1-1.278-1.278,1.278,1.278,0,0,1,1.278-1.278h15.012A1.277,1.277,0,0,1,406.987-90.907Zm5.15.493a1.719,1.719,0,0,1-.077-.486,1.279,1.279,0,0,1,1.26-1.3,1.3,1.3,0,0,1,.5.095,2.274,2.274,0,0,1,.409.281,1.274,1.274,0,0,1,.008,1.807l-.008.008a1.29,1.29,0,0,1-.895.383,1.61,1.61,0,0,1-.511-.1,1.493,1.493,0,0,1-.409-.281A1.555,1.555,0,0,1,412.138-90.413Z" transform="translate(-327.262 98.976)"/></g></g></svg>