<svg xmlns="http://www.w3.org/2000/svg" width="313.436" height="314.208" viewBox="0 0 313.436 314.208"><defs><style>.a{fill:#fafafa;}.b{fill:#77f5ca;}.c{fill:#0b5fff;}.d{fill:#e81524;}</style></defs><g transform="translate(-803 -3630.03)"><rect class="a" width="313.436" height="314.208" transform="translate(803 3630.03)"/><ellipse class="b" cx="60" cy="63" rx="60" ry="63" transform="translate(904 3725)"/><ellipse class="c" cx="42" cy="42.5" rx="42" ry="42.5" transform="translate(920 3746)"/><ellipse class="d" cx="18.5" cy="17.5" rx="18.5" ry="17.5" transform="translate(943 3771)"/><g transform="translate(892.242 3719.707)"><path d="M74.563,6a68.408,68.408,0,1,0,13,1.217A3.123,3.123,0,0,0,86.4,13.353a62.351,62.351,0,0,1,50.448,58.093H119.656A45.25,45.25,0,0,0,77.679,29.47V9.116A3.116,3.116,0,0,0,74.563,6Zm-3.116,6.524V29.47A45.247,45.247,0,0,0,29.472,71.446H12.331A62.136,62.136,0,0,1,71.446,12.524Zm0,23.229V52.991A21.86,21.86,0,0,0,52.991,71.446H35.753A38.873,38.873,0,0,1,71.446,35.753Zm6.233,0a38.873,38.873,0,0,1,35.693,35.693H96.135A21.86,21.86,0,0,0,77.679,52.991ZM74.563,58.98A15.582,15.582,0,1,1,58.98,74.563,15.535,15.535,0,0,1,74.563,58.98Zm-62.232,18.7H29.472a45.265,45.265,0,0,0,41.975,41.975v17.141A62.235,62.235,0,0,1,12.331,77.679Zm23.422,0H52.991A21.86,21.86,0,0,0,71.446,96.135v17.237A38.858,38.858,0,0,1,35.753,77.679Zm60.382,0h17.237A38.949,38.949,0,0,1,86.2,111.766a3.118,3.118,0,1,0,1.9,5.94,45.243,45.243,0,0,0,31.555-40.027H136.8a62.237,62.237,0,0,1-59.117,59.115V96.135A21.86,21.86,0,0,0,96.135,77.679Z" transform="translate(-6 -6)"/></g></g></svg>