<svg xmlns="http://www.w3.org/2000/svg" width="312" height="315" viewBox="0 0 312 315"><defs><style>.a{fill:#fafafa;}.b{fill:#0b5fff;}.c{fill:#e81524;}.d{fill:#77f5ca;}.d,.e{font-size:26px;font-family:Helvetica;}</style></defs><g transform="translate(-364 -3631)"><rect class="a" width="312" height="315" transform="translate(364 3631)"/><path class="b" d="M5502.145,5306.988h-15.76l-15.471-3.393-14.558-4.931-6.181-1.9-15.8,1.9-9.868-1.9v-8.62l4.688-3.877-15.359,3.877-23,8.62s-17.952-6.153-16.953-8.62,67.648-28.629,67.648-28.629h8.64l53.687,13.679,2.573,30.4Z" transform="translate(-4933.363 -1551.55)"/><path class="c" d="M5378.138,5259.52H5393.9l15.471,3.394,14.557,4.93,6.182,1.9,15.8-1.9,9.868,1.9v8.619l-4.689,3.877,15.359-3.877,23-8.619s17.952,6.153,16.953,8.619-67.648,28.629-67.648,28.629h-8.639l-53.688-13.679-2.572-30.4Z" transform="translate(-4905.504 -1440.107)"/><g transform="translate(437.463 3705.233)"><path d="M287.966,101.585c-4.869-5.976-13.61-8.555-21.743-6.406l-26.954,7.1c0-.053.018-.1.018-.153,0-5.081-4.711-9.214-10.5-9.214H206.311c-12.3-10.988-41.294-10.214-50.387-9.674V81.534a2.513,2.513,0,0,0-2.514-2.514H125.393a2.512,2.512,0,0,0-2.514,2.514v41.694a2.513,2.513,0,0,0,2.514,2.514h28.018a2.515,2.515,0,0,0,2.514-2.514v-1.943L204.3,135.418a30.4,30.4,0,0,0,20.272-1.217l61.883-26.866a3.811,3.811,0,0,0,2.237-2.592A3.6,3.6,0,0,0,287.966,101.585ZM150.9,120.714h-22.99V84.048H150.9Zm71.677,8.874a25.256,25.256,0,0,1-16.861,1l-49.788-14.546V88.289c8.331-.49,37.261-1.385,47.616,8.922a2.514,2.514,0,0,0,1.775.734h23.468c2.969,0,5.475,1.918,5.475,4.186s-2.506,4.186-5.475,4.186H187.842a2.514,2.514,0,1,0,0,5.028h40.942a11.091,11.091,0,0,0,7.866-3.17l30.854-8.133a16.837,16.837,0,0,1,15.31,3.394Z" transform="translate(-122.877 29.295)"/><path d="M139.681,77.24a23.127,23.127,0,0,0,5.759-.727L172.4,69.573c0,.033-.01.06-.01.09,0,5,4.711,9.058,10.5,9.058h22.49c9.432,8.236,28.7,9.706,41.264,9.706,3.821,0,6.991-.138,9.106-.261V89.78a2.515,2.515,0,0,0,2.514,2.514h28.02A2.515,2.515,0,0,0,288.8,89.78V49.064a2.515,2.515,0,0,0-2.514-2.514h-28.02a2.515,2.515,0,0,0-2.514,2.514V50.9L207.358,37.1a30.926,30.926,0,0,0-20.237,1.187L125.236,64.52a3.8,3.8,0,0,0-2.258,2.589,3.564,3.564,0,0,0,.752,3.147A20.768,20.768,0,0,0,139.681,77.24Zm121.1-25.662h22.992V87.266H260.779Zm-71.7-8.666a25.893,25.893,0,0,1,16.9-.983l49.773,14.2V83.125c-8.339.483-37.269,1.36-47.639-8.721a2.522,2.522,0,0,0-1.752-.711H182.893c-2.969,0-5.475-1.845-5.475-4.03s2.506-4.027,5.475-4.027h40.942a2.514,2.514,0,1,0,0-5.028H182.893a11.206,11.206,0,0,0-7.843,3.092l-30.863,7.944c-5.48,1.408-11.461.08-15.25-3.233Z" transform="translate(-122.878 -35.934)"/></g><text class="d" transform="translate(526 3793)"><tspan x="-45.506" y="0">BRAND</tspan></text><text class="e" transform="translate(517 3794)"><tspan x="-45.506" y="0">BRAND</tspan></text></g></svg>