<svg xmlns="http://www.w3.org/2000/svg" width="313.436" height="314.208" viewBox="0 0 313.436 314.208"><defs><style>.a{fill:#fafafa;}.b{fill:#0b5fff;}.c{fill:#f7f7f7;}.d{fill:#e81524;}</style></defs><g transform="translate(-803 -3169.749)"><rect class="a" width="313.436" height="314.208" transform="translate(803 3169.749)"/><rect class="b" width="129" height="82" rx="4" transform="translate(900 3292)"/><circle class="c" cx="42" cy="42" r="42" transform="translate(952 3310)"/><ellipse class="d" cx="38" cy="37.5" rx="38" ry="37.5" transform="translate(962 3315)"/><g transform="translate(890.029 3257.285)"><g transform="translate(0 0)"><path d="M185.334,130.065H134.647a4.483,4.483,0,0,1-4.5-4.5V17.854a4.483,4.483,0,0,1,4.5-4.5h133.22a4.483,4.483,0,0,1,4.5,4.5V69.708a1.834,1.834,0,1,1-3.668,0V17.854a.717.717,0,0,0-.667-.667H134.647c-.5-.167-.834.167-.834.667V125.73a.717.717,0,0,0,.667.667h50.854a1.85,1.85,0,0,1,1.834,1.834A1.664,1.664,0,0,1,185.334,130.065Z" transform="translate(-130.145 -13.352)"/></g><g transform="translate(15.674 13.339)"><ellipse cx="3.501" cy="3.501" rx="3.501" ry="3.501" transform="translate(30.512)"/><ellipse cx="3.501" cy="3.501" rx="3.501" ry="3.501" transform="translate(15.173 0.167)"/><ellipse cx="3.501" cy="3.501" rx="3.501" ry="3.501" transform="translate(0 0.333)"/></g><g transform="translate(0 30.179)"><path d="M270.368,35.12H131.979a1.834,1.834,0,0,1,0-3.668H270.2a1.85,1.85,0,0,1,1.834,1.834A1.714,1.714,0,0,1,270.368,35.12Z" transform="translate(-130.145 -31.452)"/></g><g transform="translate(69.862 15.173)"><path d="M229.068,26.12H173.879a1.834,1.834,0,1,1,0-3.668H228.9a1.85,1.85,0,0,1,1.834,1.834A1.621,1.621,0,0,1,229.068,26.12Z" transform="translate(-172.045 -22.452)"/></g><g transform="translate(61.358 52.021)"><path d="M209.462,129.753a42.6,42.6,0,1,1,42.517-42.684A42.481,42.481,0,0,1,209.462,129.753Zm0-81.366a38.849,38.849,0,1,0,38.849,38.849A38.888,38.888,0,0,0,209.462,48.387Z" transform="translate(-166.945 -44.552)"/></g><g transform="translate(107.043 97.873)"><path d="M196.179,122.239a1.834,1.834,0,1,1,0-3.668,44.687,44.687,0,0,0,44.684-44.685,1.834,1.834,0,0,1,3.668,0C244.7,100.4,222.856,122.239,196.179,122.239Z" transform="translate(-194.345 -72.052)"/></g><g transform="translate(136.055 126.717)"><path d="M235.254,120.031a7.2,7.2,0,0,1-5.169-2.168l-17.84-17.841a1.886,1.886,0,0,1,2.668-2.668l17.841,17.84a3.537,3.537,0,0,0,5-5L219.748,92.52a1.886,1.886,0,0,1,2.668-2.668l17.84,17.84a7.145,7.145,0,0,1,0,10.171A6.58,6.58,0,0,1,235.254,120.031Z" transform="translate(-211.745 -89.352)"/></g></g><g transform="translate(982.537 3327.408)"><g transform="translate(0 4.63)"><path d="M176.57-26.633a10.7,10.7,0,0,1-10.7-10.7,1.772,1.772,0,0,1,1.756-1.756,1.772,1.772,0,0,1,1.756,1.756A7.087,7.087,0,0,0,176.41-30.3a7.087,7.087,0,0,0,7.025-7.025c0-3.353-2.076-5.428-7.664-7.185-2.555-.8-10.058-3.353-10.058-10.537a10.7,10.7,0,0,1,10.7-10.7,10.7,10.7,0,0,1,10.7,10.7,1.772,1.772,0,0,1-1.756,1.756,1.772,1.772,0,0,1-1.756-1.756,7.087,7.087,0,0,0-7.025-7.025,7.087,7.087,0,0,0-7.025,7.025c0,3.193,2.395,5.428,7.664,7.185,4.949,1.6,10.058,4.151,10.058,10.537A10.6,10.6,0,0,1,176.57-26.633Z" transform="translate(-165.713 65.749)"/></g><g transform="translate(9.101)"><path d="M173.169-60.187a1.772,1.772,0,0,1-1.756-1.756v-4.949a1.772,1.772,0,0,1,1.756-1.756,1.772,1.772,0,0,1,1.756,1.756v4.949A1.594,1.594,0,0,1,173.169-60.187Z" transform="translate(-171.413 68.649)"/></g><g transform="translate(9.101 40.394)"><path d="M173.169-34.887a1.772,1.772,0,0,1-1.756-1.756v-4.949a1.772,1.772,0,0,1,1.756-1.756,1.772,1.772,0,0,1,1.756,1.756v4.949A1.594,1.594,0,0,1,173.169-34.887Z" transform="translate(-171.413 43.349)"/></g></g></g></svg>