<svg xmlns="http://www.w3.org/2000/svg" width="312" height="315" viewBox="0 0 312 315"><defs><style>.a{fill:#fafafa;}.b{fill:#77f5ca;}.c{fill:#e81524;}</style></defs><g transform="translate(-1244 -3631)"><rect class="a" width="312" height="315" transform="translate(1244 3631)"/><rect class="b" width="128" height="77" transform="translate(1343 3746)"/><path class="c" d="M6348.047,5336.494v-79.587h53.617l16.051,16.052v64.813l-1.732,1.732h-67.936Z" transform="translate(-4952.289 -1480.671)"/><g transform="translate(1327 3715.143)"><g transform="translate(0)"><path d="M-11.655-64.514H-63.57a4.422,4.422,0,0,1-4.61-4.249V-170.413a4.422,4.422,0,0,1,4.61-4.249H72.876a4.423,4.423,0,0,1,4.612,4.249v48.937a1.826,1.826,0,0,1-1.879,1.731,1.826,1.826,0,0,1-1.879-1.731v-48.937a.708.708,0,0,0-.683-.629H-63.57a.615.615,0,0,0-.854.629V-68.6a.709.709,0,0,0,.684.629h52.084a1.826,1.826,0,0,1,1.879,1.731C-9.606-65.3-10.459-64.514-11.655-64.514Z" transform="translate(68.18 174.662)"/></g><g transform="translate(14.791 12.588)"><g transform="translate(28.796)"><ellipse cx="3.304" cy="3.304" rx="3.304" ry="3.304"/></g><g transform="translate(14.319 0.157)"><ellipse cx="3.304" cy="3.304" rx="3.304" ry="3.304"/></g><g transform="translate(0 0.315)"><ellipse cx="3.304" cy="3.304" rx="3.304" ry="3.304"/></g></g><g transform="translate(0 28.481)"><path d="M75.438-153.1H-66.3a1.826,1.826,0,0,1-1.879-1.731,1.826,1.826,0,0,1,1.879-1.731H75.268a1.824,1.824,0,0,1,1.877,1.731A1.676,1.676,0,0,1,75.438-153.1Z" transform="translate(68.18 156.562)"/></g><g transform="translate(71.552 14.319)"><path d="M35.7-162.1H-20.829a1.826,1.826,0,0,1-1.879-1.731,1.826,1.826,0,0,1,1.879-1.731H35.526a1.824,1.824,0,0,1,1.877,1.731A1.583,1.583,0,0,1,35.7-162.1Z" transform="translate(22.708 165.562)"/></g><g transform="translate(67.323 59.074)"><path d="M43.478-51.179H-21.236a4.165,4.165,0,0,1-4.16-4.159v-77.623a4.165,4.165,0,0,1,4.16-4.159H30.04l17.6,17.6v64.185A4.164,4.164,0,0,1,43.478-51.179Zm-64.714-82.794a1.013,1.013,0,0,0-1.013,1.012v77.623a1.013,1.013,0,0,0,1.013,1.012H43.478a1.012,1.012,0,0,0,1.012-1.012V-118.22L28.737-133.973Z" transform="translate(25.396 137.12)"/></g><g transform="translate(118.545 60.445)"><path d="M11.779-115.923A4.6,4.6,0,0,1,8.5-117.3a4.6,4.6,0,0,1-1.3-3.858l1.962-15.1,3.122.4-1.962,15.1a1.473,1.473,0,0,0,.417,1.237,1.481,1.481,0,0,0,1.234.428L27.2-120.934l.381,3.123-15.235,1.852A4.981,4.981,0,0,1,11.779-115.923Z" transform="translate(-7.156 136.249)"/></g><g transform="translate(81.721 93.325)"><path d="M-5.371-93.6a1.569,1.569,0,0,1-1.112-.461l-9.3-9.3a1.569,1.569,0,0,1-.461-1.112,1.572,1.572,0,0,1,.461-1.113l9.3-9.3a1.572,1.572,0,0,1,2.225,0,1.575,1.575,0,0,1,0,2.225l-8.189,8.187,8.189,8.189a1.575,1.575,0,0,1,0,2.225A1.575,1.575,0,0,1-5.371-93.6Z" transform="translate(16.246 115.353)"/></g><g transform="translate(113.766 93.325)"><path d="M5.693-93.6a1.569,1.569,0,0,1-1.112-.461,1.572,1.572,0,0,1,0-2.225l8.187-8.189L4.58-112.667a1.572,1.572,0,0,1,0-2.225,1.572,1.572,0,0,1,2.225,0l9.3,9.3a1.572,1.572,0,0,1,0,2.225l-9.3,9.3A1.569,1.569,0,0,1,5.693-93.6Z" transform="translate(-4.119 115.353)"/></g><g transform="translate(97.895 86.325)"><path d="M-4.392-85.724a1.563,1.563,0,0,1-.461-.071A1.572,1.572,0,0,1-5.9-87.758L3.569-118.69a1.58,1.58,0,0,1,1.964-1.045,1.573,1.573,0,0,1,1.045,1.965L-2.889-86.838A1.576,1.576,0,0,1-4.392-85.724Z" transform="translate(5.967 119.802)"/></g></g></g></svg>