<svg xmlns="http://www.w3.org/2000/svg" width="100.814" height="68.843" viewBox="0 0 100.814 68.843"><defs><style>.a{opacity:0.689;}</style></defs><g class="a"><path d="M539.577,161.055c0,.936,0,1.805,0,2.673,0,.141-.1.219-.176.309a28.492,28.492,0,0,0-6.358,12.978,20.341,20.341,0,0,0,1.305,13.046,17.87,17.87,0,0,0,6.667,7.4,31.566,31.566,0,0,0,9.925,4.064,60.213,60.213,0,0,0,10.934,1.5,96.95,96.95,0,0,0,35.4-4.894,76.549,76.549,0,0,0,13.087-5.556c.626-.344,1.241-.709,1.864-1.066a.512.512,0,0,1,.055.367c0,2.368,0,4.735.01,7.1a.576.576,0,0,1-.357.589,75.329,75.329,0,0,1-13.7,5.721,105.848,105.848,0,0,1-12.842,3.19,96.056,96.056,0,0,1-10.523,1.358,93.1,93.1,0,0,1-10.3.224,59.524,59.524,0,0,1-17.507-3.031,32.247,32.247,0,0,1-10.856-6.108,21.615,21.615,0,0,1-7.27-13.21,26.623,26.623,0,0,1,4.675-19.962,38.88,38.88,0,0,1,5.758-6.536C539.42,161.177,539.471,161.14,539.577,161.055Z" transform="translate(-528.58 -141.28)"/><path d="M551.326,155.638c0-.642.01-1.216,0-1.788-.007-.256.174-.315.325-.41a74.188,74.188,0,0,1,9.193-4.861,85.485,85.485,0,0,1,18.52-5.785,79.918,79.918,0,0,1,16.742-1.5,57.432,57.432,0,0,1,14.216,1.931,34.178,34.178,0,0,1,10.989,5.017,20.382,20.382,0,0,1,7.408,9.19,20.852,20.852,0,0,1,1.328,10.093c-.842,7.478-4.588,13.108-10.451,17.351a20.556,20.556,0,0,1-4.153,2.281c-.311.129-.428.12-.423-.285.02-1.628.015-3.257,0-4.885a.6.6,0,0,1,.318-.584,21.7,21.7,0,0,0,6.891-6.9,17.331,17.331,0,0,0,2.791-9.6,16.581,16.581,0,0,0-5.057-11.824,24.568,24.568,0,0,0-9.28-5.568,44.219,44.219,0,0,0-10.157-2.243,66.55,66.55,0,0,0-10.487-.3,86.181,86.181,0,0,0-10.587,1.167,96.221,96.221,0,0,0-19.357,5.46,88.142,88.142,0,0,0-8.316,3.818C551.647,155.478,551.518,155.541,551.326,155.638Z" transform="translate(-529.365 -141.28)"/><path d="M597.831,178.392c-2.061,0-4.122.007-6.183-.007-.3,0-.383.076-.362.39a4.337,4.337,0,0,0,4.388,4.38,5.793,5.793,0,0,0,4.743-1.813c.153-.164.249-.168.411,0q1.392,1.4,2.806,2.781c.148.145.161.226.008.382a9.855,9.855,0,0,1-6.144,3.081,12.383,12.383,0,0,1-4.982-.378,8.138,8.138,0,0,1-5.553-5.341,14.527,14.527,0,0,1,.049-10.148,8.634,8.634,0,0,1,7.376-5.829,8.117,8.117,0,0,1,6.468,1.656,9.657,9.657,0,0,1,3.176,5.394,21.021,21.021,0,0,1,.4,5.217c0,.3-.185.239-.344.239Q600.961,178.394,597.831,178.392Zm-2.555-3.638c1.227,0,2.453-.005,3.68.005.242,0,.323-.055.285-.323a9.723,9.723,0,0,0-.211-1.248,3.554,3.554,0,0,0-2.445-2.8,4.116,4.116,0,0,0-3.72.709,4.314,4.314,0,0,0-1.555,3.229c-.034.341.012.448.365.441C592.876,174.74,594.077,174.754,595.277,174.754Z" transform="translate(-530.566 -141.28)"/><path d="M553.975,176.734c0-3.38,0-6.759-.007-10.139,0-.348.065-.462.429-.46,3.409.019,6.817.011,10.226.02a6.748,6.748,0,0,1,2.968.6,5.575,5.575,0,0,1,3.066,4.44,9.3,9.3,0,0,1,.094,1.554q0,7.061.009,14.121c0,.369-.082.479-.451.473q-2.159-.034-4.319,0c-.33.005-.414-.083-.413-.426q.017-7.122.01-14.244a3.372,3.372,0,0,0-.1-.934,1.7,1.7,0,0,0-1.693-1.235c-1.467-.033-2.933-.011-4.4-.022-.2,0-.245.078-.24.265.01.411,0,.821,0,1.232q0,7.451.009,14.9c0,.388-.108.469-.459.464q-2.159-.03-4.32,0c-.327,0-.419-.084-.418-.428C553.98,183.521,553.975,180.127,553.975,176.734Z" transform="translate(-529.457 -141.28)"/><path d="M580.539,175.917q0,2.359,0,4.72a6.732,6.732,0,0,0,.048.777A1.448,1.448,0,0,0,582,182.808c.7.038,1.4.03,2.1.018.276-.005.364.08.361.37-.013,1.258,0,2.517-.009,3.776,0,.148.067.354-.2.346a27.84,27.84,0,0,1-4.349-.151,5.481,5.481,0,0,1-4.472-5.009c-.046-.464-.064-.927-.064-1.392q0-9.954-.01-19.908c0-.4.105-.493.48-.487,1.439.024,2.88.021,4.32,0,.321,0,.391.1.388.414-.014,1.6-.01,3.2-.006,4.8,0,.646-.079.55.555.553,1,0,2.008.012,3.012-.005.277,0,.358.079.354.367-.014,1.2-.018,2.408,0,3.612.006.329-.11.378-.389.374-1.056-.015-2.113.006-3.171-.014-.3-.006-.375.088-.372.391C580.545,172.551,580.539,174.234,580.539,175.917Z" transform="translate(-530.195 -141.28)"/><path d="M613.436,172.213c0,4.816,0,9.632.01,14.448,0,.383-.1.475-.443.4a10.727,10.727,0,0,1-1.422-.353,4.95,4.95,0,0,1-3.359-4.9c-.032-1.956-.013-3.913-.013-5.869q0-9.07-.008-18.141c0-.343.055-.464.423-.458q2.178.041,4.359,0c.4-.008.463.128.462.5Q613.426,165.03,613.436,172.213Z" transform="translate(-531.33 -141.28)"/><path d="M549.026,176.888c0,3.419,0,6.837.007,10.256,0,.345-.061.444-.416.375a9.066,9.066,0,0,1-1.683-.443,4.845,4.845,0,0,1-3.1-4.32,13.366,13.366,0,0,1-.054-1.433c0-4.9.007-9.792,0-14.687,0-.383.074-.51.47-.5,1.466.027,2.931.021,4.4,0,.32,0,.392.1.391.413C549.022,170,549.026,173.442,549.026,176.888Z" transform="translate(-529.105 -141.28)"/><path d="M546.408,158.089c.766,0,1.532.007,2.3-.005.219,0,.3.057.3.3q-.014,2.257,0,4.515c0,.253-.077.324-.317.323q-2.278-.014-4.557,0c-.256,0-.341-.073-.339-.345q.017-2.236,0-4.474c0-.262.085-.319.32-.315C544.875,158.1,545.642,158.089,546.408,158.089Z" transform="translate(-529.105 -141.28)"/><path d="M621.451,159.506a2.081,2.081,0,1,1-2.093-2.151A2.122,2.122,0,0,1,621.451,159.506Zm-2.1,1.783a1.787,1.787,0,1,0-1.7-1.792A1.763,1.763,0,0,0,619.353,161.289Z" transform="translate(-531.644 -141.28)"/><path d="M618.485,159.472v-.7c0-.615,0-.618.611-.628a4.028,4.028,0,0,1,.592.027.631.631,0,0,1,.6.509c.062.323.1.679-.225.888-.2.132-.149.24-.055.39a3.488,3.488,0,0,1,.239.423c.055.122.252.28.086.377a.365.365,0,0,1-.544-.144c-.112-.216-.242-.422-.359-.635-.063-.113-.13-.208-.274-.187-.188.028-.112.184-.121.29a3.515,3.515,0,0,0,0,.45c.011.189-.058.271-.25.269s-.3-.038-.3-.268C618.492,160.182,618.485,159.827,618.485,159.472Zm.861-.863c-.183-.017-.367-.024-.323.253.03.191-.146.509.262.487.239-.012.5.007.532-.339S619.586,158.637,619.346,158.609Z" transform="translate(-531.685 -141.28)"/></g></svg>