<svg xmlns="http://www.w3.org/2000/svg" xmlns:xlink="http://www.w3.org/1999/xlink" width="81.187" height="75.013" viewBox="0 0 81.187 75.013"><defs><style>.a{fill:#060707;}.b{opacity:0.689;}.c{clip-path:url(#a);}.d{clip-path:url(#b);}.e{clip-path:url(#c);}.f{clip-path:url(#d);}.g{clip-path:url(#e);}.h{clip-path:url(#f);}.i{clip-path:url(#g);}</style><clipPath id="a"><path class="a" d="M1315.9,166.23v23.6l7.224,4.41,7.227-4.41v-30.36Z" transform="translate(-1315.905 -159.465)"/></clipPath><clipPath id="b"><path class="a" d="M1315.9,142.61v23.62l7.125-3.326,7.327-3.439V142.61l-7.227-4.414Z" transform="translate(-1315.905 -138.196)"/></clipPath><clipPath id="c"><path class="a" d="M1352.694,142.606v30.36l14.45-6.764v-23.6l-7.224-4.411Z" transform="translate(-1352.694 -138.195)"/></clipPath><clipPath id="d"><path class="a" d="M1360.021,169.529l-7.327,3.438v16.856l7.225,4.413,7.224-4.413V166.2Z" transform="translate(-1352.694 -166.202)"/></clipPath><clipPath id="e"><path class="a" d="M1319.952,158.588l-4.062,7.641,4.063,7.641h8.342l4.171-7.641,4.226-7.641Z" transform="translate(-1315.89 -158.588)"/></clipPath><clipPath id="f"><path class="a" d="M1337.286,158.588l-4.171,7.563,4.171,7.719h8.345l4.172-7.641-4.172-7.641Z" transform="translate(-1333.115 -158.588)"/></clipPath><clipPath id="g"><path class="a" d="M1354.4,158.592l-4.173,7.643-4.179,7.641h16.7l4.169-7.674-4.169-7.61Z" transform="translate(-1346.046 -158.592)"/></clipPath></defs><g class="b"><g transform="translate(15.444 21.269)"><path class="a" d="M1315.9,166.23v23.6l7.224,4.41,7.227-4.41v-30.36Z" transform="translate(-1315.905 -159.465)"/><g class="c"><path class="a" d="M.105.107,34.949-.5l-.6,34.27L-.5,34.376Z" transform="matrix(0.693, -0.721, 0.721, 0.693, -16.922, 18.054)"/></g></g><g transform="translate(15.444 0.001)"><path class="a" d="M1315.9,142.61v23.62l7.125-3.326,7.327-3.439V142.61l-7.227-4.414Z" transform="translate(-1315.905 -138.196)"/><g class="d"><path class="a" d="M.031.021,19.022-.1l-.18,30.191-18.991.117Z" transform="translate(-4.703 0.845) rotate(-10.091)"/></g></g><g transform="translate(50.962 0)"><path class="a" d="M1352.694,142.606v30.36l14.45-6.764v-23.6l-7.224-4.411Z" transform="translate(-1352.694 -138.195)"/><g class="e"><path class="a" d="M.105.107,34.948-.5l-.6,34.269L-.5,34.375Z" transform="matrix(0.693, -0.721, 0.721, 0.693, -16.922, 18.054)"/></g></g><g transform="translate(50.962 28.007)"><path class="a" d="M1360.021,169.529l-7.327,3.438v16.856l7.225,4.413,7.224-4.413V166.2Z" transform="translate(-1352.694 -166.202)"/><g class="f"><path class="a" d="M.015.009,16.741-.042l-.086,29.209-16.726.051Z" transform="translate(-2.333 0.199) rotate(-4.929)"/></g></g><g transform="translate(0 63.316)"><path class="a" d="M1305.49,213.208v-4.631h-2.876v4.631h-2.706v-11.7h2.706v4.5h2.876v-4.5h2.708v11.7Z" transform="translate(-1299.908 -201.512)"/><rect class="a" width="2.704" height="11.696" transform="translate(16.019)"/><path class="a" d="M1331.085,209.035h-1.656v4.173h-2.7v-11.7h4.359a3.762,3.762,0,0,1,0,7.523m-.123-4.944h-1.533v2.365h1.533a1.183,1.183,0,0,0,0-2.365" transform="translate(-1300.835 -201.512)"/><path class="a" d="M1346.758,213.208h-4.8v-11.7h4.562a3.172,3.172,0,0,1,3.51,3.384,2.843,2.843,0,0,1-1.206,2.315,2.744,2.744,0,0,1,1.359,2.547,3.213,3.213,0,0,1-3.43,3.45m-.4-9.117h-1.686V206h1.686a.953.953,0,1,0,0-1.906m.139,4.486h-1.825v2.053h1.825a.941.941,0,0,0,.99-1.035.927.927,0,0,0-.99-1.018" transform="translate(-1301.361 -201.512)"/><path class="a" d="M1364.672,213.208l-.511-1.742h-3.384l-.542,1.742H1357.4l4.007-11.7h2.087l4,11.7Zm-2.148-7.261-.991,3.122h1.917Z" transform="translate(-1301.894 -201.512)"/><path class="a" d="M1380.551,213.208l-1.949-4.354h-.914v4.354h-2.7v-11.7h4.361a3.627,3.627,0,0,1,3.759,3.761,3.385,3.385,0,0,1-1.795,3.057l2.381,4.878Zm-1.331-9.117h-1.532v2.365h1.532a1.183,1.183,0,0,0,0-2.365" transform="translate(-1302.502 -201.512)"/></g><g transform="translate(15.429 20.393)"><path class="a" d="M1319.952,158.588l-4.062,7.641,4.063,7.641h8.342l4.171-7.641,4.226-7.641Z" transform="translate(-1315.89 -158.588)"/><g class="g"><path class="a" d="M.079.076,25.345-.362,24.9,25.414l-25.266.438Z" transform="matrix(0.653, -0.757, 0.757, 0.653, -7.406, 8.774)"/></g></g><g transform="translate(32.059 20.393)"><path class="a" d="M1337.286,158.588l-4.171,7.563,4.171,7.719h8.345l4.172-7.641-4.172-7.641Z" transform="translate(-1333.115 -158.588)"/><g class="h"><path class="a" d="M.046.049,21.352-.228l-.264,20.79-21.306.277Z" transform="matrix(0.917, -0.398, 0.398, 0.917, -5.454, 2.4)"/></g></g><g transform="translate(44.544 20.397)"><path class="a" d="M1354.4,158.592l-4.173,7.643-4.179,7.641h16.7l4.169-7.674-4.169-7.61Z" transform="translate(-1346.046 -158.592)"/><g class="i"><path class="a" d="M.011.014,22.28-.066l-.061,17.4L-.05,17.417Z" transform="translate(-1.509 0.146) rotate(-5.856)"/></g></g></g></svg>