<svg xmlns="http://www.w3.org/2000/svg" width="158.989" height="37.908" viewBox="0 0 158.989 37.908"><defs><style>.a{opacity:0.689;}</style></defs><g class="a"><path d="M121.159,473.95l5.221,4.33-5.217,4.325Z" transform="translate(-102.029 -473.89)"/><path d="M121.164,485.164l5.225,4.333-5.221,4.322Z" transform="translate(-102.03 -475.761)"/><path d="M128.613,473.95l5.224,4.332-5.218,4.325Z" transform="translate(-103.488 -473.89)"/><path d="M128.62,485.174l5.223,4.328-5.218,4.328Z" transform="translate(-103.489 -475.763)"/><path d="M136.276,473.956l5.224,4.331-5.22,4.327Z" transform="translate(-104.986 -473.891)"/><path d="M136.281,485.177,141.5,489.5l-5.216,4.325Z" transform="translate(-104.987 -475.763)"/><path d="M97.378,518.278l4.2-5.432,4.189,5.427Z" transform="translate(-97.378 -480.379)"/><path d="M108.641,518.271l4.2-5.433,4.193,5.429Z" transform="translate(-99.581 -480.378)"/><path d="M97.379,510.789l4.2-5.432,4.192,5.428Z" transform="translate(-97.378 -479.13)"/><path d="M108.648,510.784l4.195-5.433,4.194,5.427Z" transform="translate(-99.582 -479.129)"/><path d="M97.386,503.1l4.195-5.432,4.194,5.432Z" transform="translate(-97.379 -477.847)"/><path d="M108.648,503.1l4.2-5.433,4.192,5.424Z" transform="translate(-99.582 -477.846)"/><path d="M121.183,499.962l2.19-2.271,2.192,2.271Z" transform="translate(-102.034 -477.851)"/><path d="M126.542,499.962l2.185-2.271,2.193,2.271Z" transform="translate(-103.082 -477.851)"/><path d="M131.985,499.962l2.186-2.271,2.191,2.271Z" transform="translate(-104.147 -477.851)"/><path d="M137.413,499.962l2.189-2.271,2.189,2.271Z" transform="translate(-105.209 -477.851)"/><path d="M121.181,504.7l2.189-2.269,2.188,2.269Z" transform="translate(-102.034 -478.642)"/><path d="M126.532,504.7l2.193-2.269,2.188,2.269Z" transform="translate(-103.08 -478.642)"/><path d="M131.978,504.7l2.192-2.269,2.191,2.269Z" transform="translate(-104.146 -478.642)"/><path d="M137.409,504.7l2.189-2.269,2.189,2.269Z" transform="translate(-105.208 -478.642)"/><path d="M121.176,509.441l2.189-2.269,2.189,2.269Z" transform="translate(-102.033 -479.432)"/><path d="M126.532,509.441l2.193-2.269,2.187,2.269Z" transform="translate(-103.08 -479.432)"/><path d="M131.976,509.441l2.189-2.269,2.188,2.269Z" transform="translate(-104.145 -479.432)"/><path d="M137.408,509.441l2.188-2.269,2.191,2.269Z" transform="translate(-105.208 -479.432)"/><path d="M121.186,514.181l2.188-2.266,2.189,2.266Z" transform="translate(-102.035 -480.224)"/><path d="M126.543,514.181l2.187-2.266,2.19,2.266Z" transform="translate(-103.083 -480.224)"/><path d="M131.985,514.181l2.19-2.266,2.187,2.266Z" transform="translate(-104.147 -480.224)"/><path d="M137.414,514.181l2.188-2.266,2.189,2.266Z" transform="translate(-105.209 -480.224)"/><path d="M121.173,518.922l2.188-2.266,2.19,2.266Z" transform="translate(-102.032 -481.015)"/><path d="M126.532,518.922l2.189-2.266,2.19,2.266Z" transform="translate(-103.08 -481.015)"/><path d="M131.975,518.922l2.188-2.266,2.191,2.266Z" transform="translate(-104.145 -481.015)"/><path d="M137.4,518.922l2.191-2.266,2.189,2.266Z" transform="translate(-105.206 -481.015)"/><path d="M100.162,485.139l-1.875-2.28,1.857-2.277L98.3,478.337l1.864-2.243-1.826-2.216h-.908l1.826,2.216-1.865,2.243,1.85,2.244-1.857,2.283,1.872,2.274-1.875,2.281,1.875,2.268-1.845,2.241h.906l1.846-2.241-1.875-2.272Z" transform="translate(-97.379 -473.878)"/><path d="M103.8,485.139l-1.877-2.28,1.861-2.277-1.848-2.244,1.865-2.243-1.826-2.216h-.906l1.826,2.216-1.865,2.243,1.852,2.244-1.86,2.283,1.873,2.274-1.873,2.281,1.873,2.268-1.844,2.241h.906l1.844-2.241-1.875-2.272Z" transform="translate(-98.09 -473.878)"/><path d="M107.433,485.139l-1.873-2.28,1.86-2.277-1.846-2.244,1.862-2.243-1.826-2.216h-.9l1.826,2.216-1.866,2.243,1.851,2.244-1.858,2.283,1.873,2.274-1.873,2.281,1.873,2.268-1.845,2.241h.906l1.844-2.241-1.875-2.272Z" transform="translate(-98.802 -473.878)"/><path d="M111.07,485.139l-1.876-2.28,1.859-2.277-1.846-2.244,1.864-2.243-1.826-2.216h-.9l1.823,2.216-1.865,2.243,1.854,2.244-1.858,2.283,1.869,2.274-1.871,2.281,1.871,2.268-1.841,2.241h.9l1.845-2.241-1.875-2.272Z" transform="translate(-99.513 -473.878)"/><path d="M114.7,485.139l-1.875-2.28,1.858-2.277-1.845-2.244,1.864-2.243-1.826-2.216h-.908l1.825,2.216-1.865,2.243,1.853,2.244-1.861,2.283,1.873,2.274-1.873,2.281,1.873,2.268-1.841,2.241h.9l1.845-2.241-1.874-2.272Z" transform="translate(-100.223 -473.878)"/><path d="M118.342,485.139l-1.874-2.28,1.858-2.277-1.845-2.244,1.862-2.243-1.826-2.216h-.906l1.825,2.216-1.864,2.243,1.851,2.244-1.857,2.283,1.87,2.274-1.87,2.281,1.87,2.268-1.84,2.241h.9l1.844-2.241-1.875-2.272Z" transform="translate(-100.935 -473.878)"/><path d="M169.865,501.625h-2.439l-3.76-13.409-3.735,13.409h-2.442l-4.824-19.132h2.955l3.219,13.677,3.706-13.677h2.262l3.709,13.677,3.215-13.677h2.962Z" transform="translate(-108.192 -475.316)"/><path d="M188.734,501.243a5.23,5.23,0,0,1-3.946,1.614,5.17,5.17,0,0,1-3.917-1.614c-1.245-1.344-1.556-3.059-1.556-5.37,0-2.29.311-4.008,1.556-5.352a5.149,5.149,0,0,1,3.917-1.615,5.209,5.209,0,0,1,3.946,1.615c1.248,1.343,1.553,3.062,1.553,5.352,0,2.311-.3,4.026-1.553,5.37m-2-9.11a2.623,2.623,0,0,0-1.946-.777,2.574,2.574,0,0,0-1.92.777c-.8.84-.9,2.257-.9,3.74s.105,2.9.9,3.733a2.608,2.608,0,0,0,1.92.8,2.657,2.657,0,0,0,1.946-.8c.809-.834.909-2.263.909-3.733s-.1-2.9-.909-3.74" transform="translate(-113.405 -476.385)"/><path d="M203.023,492.272a2.4,2.4,0,0,0-1.972-.917,2.768,2.768,0,0,0-2.622,3.059v8.281h-2.644V489.076h2.594v1.468a4.322,4.322,0,0,1,3.5-1.635,3.985,3.985,0,0,1,3.136,1.291Z" transform="translate(-116.627 -476.386)"/><path d="M216.6,501.625l-3.683-6.286-1.945,2.287v4h-2.651V482.494h2.651v11.792l5.111-6.28H219.3l-4.566,5.342,5.135,8.278Z" transform="translate(-119.078 -475.316)"/><path d="M231.213,502.695v-1.231a4.272,4.272,0,0,1-3.506,1.394,4.554,4.554,0,0,1-3.524-1.236,4.247,4.247,0,0,1-1.038-2.924c0-2.287,1.526-3.929,4.538-3.929h3.474V493.8c0-1.72-.825-2.555-2.877-2.555a3.044,3.044,0,0,0-2.879,1.318l-1.738-1.693c1.244-1.5,2.546-1.962,4.723-1.962,3.6,0,5.421,1.588,5.421,4.677v9.109Zm-.056-6.02h-3.082c-1.557,0-2.366.727-2.366,1.965s.755,1.937,2.417,1.937a3.076,3.076,0,0,0,2.464-.781,2.819,2.819,0,0,0,.567-2.017Z" transform="translate(-121.978 -476.386)"/><path d="M243.129,490.645v10.937h-3.372V490.645h-1.4v-2.66h1.4v-1.749a3.755,3.755,0,0,1,3.942-4h1.921v2.958H244.3c-.8,0-1.167.453-1.167,1.256v1.536h2.49v2.66Z" transform="translate(-124.954 -475.272)"/><path d="M250.958,496.71a2.843,2.843,0,0,0,2.955,3.114,3.68,3.68,0,0,0,3.063-1.319l2.047,2.072a6.327,6.327,0,0,1-5.137,2.2c-3.194,0-6.253-1.5-6.253-7.175,0-4.567,2.388-7.149,5.891-7.149,3.764,0,5.883,2.844,5.883,6.691v1.561Zm4.822-3.9a2.483,2.483,0,0,0-4.518,0,4,4,0,0,0-.3,1.5h5.133a3.923,3.923,0,0,0-.31-1.5" transform="translate(-126.768 -476.311)"/><path d="M268.3,501.625a3.743,3.743,0,0,1-3.946-4V482.494h3.374v14.917c0,.826.339,1.256,1.2,1.256h1.293v2.959Z" transform="translate(-130.039 -475.316)"/><path d="M277.167,501.625a3.742,3.742,0,0,1-3.944-4V482.494H276.6v14.917c0,.826.341,1.256,1.194,1.256h1.3v2.959Z" transform="translate(-131.773 -475.316)"/><path d="M288.946,502.62v-1.21a4.053,4.053,0,0,1-3.322,1.348,4.533,4.533,0,0,1-3.454-1.24,4.59,4.59,0,0,1-1.115-3.139c0-2.235,1.479-4.064,4.619-4.064h3.191v-.7c0-1.536-.73-2.2-2.517-2.2a2.854,2.854,0,0,0-2.592,1.157l-2.156-2.179c1.32-1.508,2.62-1.936,4.875-1.936,3.79,0,5.761,1.666,5.761,4.943v9.22Zm-.081-5.911h-2.671c-1.221,0-1.9.589-1.9,1.579s.624,1.616,1.947,1.616a2.607,2.607,0,0,0,2.126-.673,2.355,2.355,0,0,0,.494-1.766Z" transform="translate(-133.305 -476.31)"/><path d="M243.97,513.893V510.67l-1.071,2.352h-.526l-1.1-2.352v3.223h-.7v-4.829h.7l1.366,3,1.332-3h.7v4.829Z" transform="translate(-125.386 -479.748)"/><path d="M248.82,513.792a1.395,1.395,0,0,1-1.98,0,1.83,1.83,0,0,1-.392-1.351,1.855,1.855,0,0,1,.392-1.349,1.417,1.417,0,0,1,1.98,0,1.852,1.852,0,0,1,.393,1.349,1.827,1.827,0,0,1-.393,1.351m-.5-2.3a.673.673,0,0,0-.486-.194.664.664,0,0,0-.487.194,1.373,1.373,0,0,0-.232.945,1.355,1.355,0,0,0,.232.942.652.652,0,0,0,.487.207.662.662,0,0,0,.486-.207,1.359,1.359,0,0,0,.231-.942,1.377,1.377,0,0,0-.231-.945" transform="translate(-126.536 -480.019)"/><path d="M251.667,514.172h-.539l-1.218-3.436h.7l.791,2.419.775-2.419h.7Z" transform="translate(-127.213 -480.027)"/><path d="M254.275,512.644c0,.588.3.966.84.966a.97.97,0,0,0,.806-.358l.427.415a1.545,1.545,0,0,1-1.246.537c-.827,0-1.488-.458-1.488-1.763,0-1.109.557-1.752,1.4-1.752.888,0,1.4.679,1.4,1.651v.3Zm1.4-.948a.685.685,0,0,0-.655-.433.7.7,0,0,0-.662.433,1.181,1.181,0,0,0-.081.467h1.489a1.112,1.112,0,0,0-.091-.467" transform="translate(-127.938 -480.019)"/><path d="M259.3,509.046H260v.729H259.3Zm.017,1.407h.667v3.434h-.667Z" transform="translate(-129.05 -479.745)"/><path d="M263.065,514.164v-2.095c0-.536-.29-.768-.664-.768a.674.674,0,0,0-.686.768v2.095h-.667v-3.437h.648v.345a1.194,1.194,0,0,1,.888-.386,1.152,1.152,0,0,1,.819.308,1.314,1.314,0,0,1,.332.975v2.195Z" transform="translate(-129.392 -480.019)"/><rect width="0.795" height="0.825" transform="translate(135.007 33.319)"/><path d="M272.117,513.893V510.67l-1.073,2.352h-.521l-1.1-2.352v3.223h-.706v-4.829h.706l1.362,3,1.336-3h.7v4.829Z" transform="translate(-130.891 -479.748)"/><path d="M276.971,513.792a1.31,1.31,0,0,1-1,.412,1.287,1.287,0,0,1-.985-.412,1.839,1.839,0,0,1-.388-1.351,1.865,1.865,0,0,1,.388-1.349,1.315,1.315,0,0,1,.985-.4,1.339,1.339,0,0,1,1,.4,1.861,1.861,0,0,1,.389,1.349,1.836,1.836,0,0,1-.389,1.351m-.5-2.3a.685.685,0,0,0-.5-.194.664.664,0,0,0-.484.194,1.394,1.394,0,0,0-.226.945,1.376,1.376,0,0,0,.226.942.653.653,0,0,0,.484.207.673.673,0,0,0,.5-.207,1.376,1.376,0,0,0,.228-.942,1.394,1.394,0,0,0-.228-.945" transform="translate(-132.043 -480.019)"/><path d="M279.816,514.172h-.546l-1.216-3.436h.707l.786,2.419.776-2.419h.709Z" transform="translate(-132.719 -480.027)"/><path d="M282.423,512.644c0,.588.3.966.845.966a.978.978,0,0,0,.8-.358l.427.415a1.556,1.556,0,0,1-1.25.537c-.826,0-1.482-.458-1.482-1.763,0-1.109.553-1.752,1.4-1.752.887,0,1.407.679,1.407,1.651v.3Zm1.395-.948a.67.67,0,0,0-.648-.433.692.692,0,0,0-.661.433,1.1,1.1,0,0,0-.086.467h1.49a1.063,1.063,0,0,0-.095-.467" transform="translate(-133.445 -480.019)"/><path d="M289.46,514.172v-.345a1.187,1.187,0,0,1-.886.387,1.128,1.128,0,0,1-.822-.315,1.3,1.3,0,0,1-.33-.969v-2.195h.665v2.1c0,.533.294.764.67.764a.674.674,0,0,0,.685-.764v-2.1h.668v3.437Z" transform="translate(-134.551 -480.027)"/><path d="M294,513.9a1.111,1.111,0,0,1-.808.3,1,1,0,0,1-.867-.393v1.746h-.667v-4.828h.651v.365a1.011,1.011,0,0,1,.874-.4,1.146,1.146,0,0,1,.818.3,2.1,2.1,0,0,1,.371,1.449A2.14,2.14,0,0,1,294,513.9m-.984-2.6c-.6,0-.692.529-.692,1.139s.094,1.147.692,1.147.688-.537.688-1.147-.085-1.139-.688-1.139" transform="translate(-135.379 -480.019)"/></g></svg>