<svg xmlns="http://www.w3.org/2000/svg" width="133.322" height="45.671" viewBox="0 0 133.322 45.671"><defs><style>.a{opacity:0.689;}.b{fill:#060707;}</style></defs><g class="a"><rect class="b" width="5.217" height="20.034" transform="translate(0.001 7.835)"/><rect class="b" width="5.145" height="5.093" transform="translate(0.001 0)"/><path class="b" d="M1297.361,487.134a4.7,4.7,0,0,0-1.787-1.456,5.8,5.8,0,0,0-2.615-.541,6.989,6.989,0,0,0-2.856.574,11.856,11.856,0,0,0-2.535,1.451v-1.654H1282.7v20.035h5.221v-14.12a6.131,6.131,0,0,1,1.69-1.3,4.647,4.647,0,0,1,2.052-.48,1.534,1.534,0,0,1,1.436.665,5.292,5.292,0,0,1,.294,1.035,7.5,7.5,0,0,1,.133,1.557v12.641h5.213v-13.5a10.152,10.152,0,0,0-.349-2.716,6.3,6.3,0,0,0-1.033-2.2" transform="translate(-1273.246 -477.673)"/><path class="b" d="M1309.127,479.145h-5.215v6.362h-2.567v4.512h2.567v11.124a4.593,4.593,0,0,0,1.323,3.606,5.189,5.189,0,0,0,3.568,1.163c.429,0,.817,0,1.176-.016s.667-.042.935-.054.533-.059.818-.1.622-.108,1.032-.2v-4.615l-1.278.322a4.8,4.8,0,0,1-1.184.156,2.116,2.116,0,0,1-.855-.156c-.214-.081-.318-.34-.318-.773V490.019h3.636v-4.512h-3.636Z" transform="translate(-1273.89 -477.673)"/><path class="b" d="M1319.647,491.422a3.646,3.646,0,0,1,.549-1.09,2.239,2.239,0,0,1,.917-.715,3.146,3.146,0,0,1,1.373-.263,2.786,2.786,0,0,1,2.245.956,4.111,4.111,0,0,1,.9,2.446h-6.284a10.459,10.459,0,0,1,.3-1.334m5.463,9.3a3.62,3.62,0,0,1-2.267.686c-.126,0-.244-.005-.356-.005a2.832,2.832,0,0,1-1.355-.409,2.963,2.963,0,0,1-1.019-1.064,4.982,4.982,0,0,1-.538-1.515c-.107-.573-.2-1.15-.263-1.742h11.2v-2.587a8.957,8.957,0,0,0-.656-3.551,10.727,10.727,0,0,0-1.734-2.844,7.085,7.085,0,0,0-5.6-2.552h-.038a7.536,7.536,0,0,0-6.39,3.126,9.433,9.433,0,0,0-1.518,3.3,15.8,15.8,0,0,0-.481,3.961,15.515,15.515,0,0,0,.481,3.9,10.568,10.568,0,0,0,1.482,3.306,7.342,7.342,0,0,0,2.565,2.3,7.674,7.674,0,0,0,3.748.872h.113a10.113,10.113,0,0,0,4.57-.968,7.182,7.182,0,0,0,1.868-1.3,11.8,11.8,0,0,0,1.736-2.165l-3.856-2.518a7.892,7.892,0,0,1-1.694,1.76" transform="translate(-1274.331 -477.673)"/><rect class="b" width="5.213" height="27.499" transform="translate(59.506 0.37)"/><rect class="b" width="5.211" height="27.499" transform="translate(69.426 0.37)"/><path class="b" d="M1358.687,491.422a3.4,3.4,0,0,1,.554-1.09,2.213,2.213,0,0,1,.909-.715,3.166,3.166,0,0,1,1.376-.263,2.793,2.793,0,0,1,2.25.956,4.1,4.1,0,0,1,.892,2.446h-6.291a11.336,11.336,0,0,1,.311-1.334m5.461,9.3a3.624,3.624,0,0,1-2.26.686c-.129,0-.243-.005-.362-.005a2.849,2.849,0,0,1-1.358-.409,2.946,2.946,0,0,1-1.012-1.064,4.661,4.661,0,0,1-.538-1.515c-.108-.573-.2-1.15-.267-1.742h11.2v-2.587a9.132,9.132,0,0,0-.653-3.551,10.825,10.825,0,0,0-1.741-2.844,7.073,7.073,0,0,0-5.6-2.552h-.033a7.848,7.848,0,0,0-3.761.849,7.757,7.757,0,0,0-2.626,2.277,9.44,9.44,0,0,0-1.524,3.3,16.306,16.306,0,0,0-.476,3.961,16.01,16.01,0,0,0,.476,3.9,10.573,10.573,0,0,0,1.488,3.306,7.317,7.317,0,0,0,2.571,2.3,7.618,7.618,0,0,0,3.741.872h.111a10.131,10.131,0,0,0,4.572-.968,7.317,7.317,0,0,0,1.868-1.3,12.164,12.164,0,0,0,1.733-2.165l-3.856-2.518a8.02,8.02,0,0,1-1.694,1.76" transform="translate(-1275.679 -477.673)"/><path class="b" d="M1383.3,499.39a4.985,4.985,0,0,1-.808,1.015,3.7,3.7,0,0,1-1,.719,2.911,2.911,0,0,1-1.31.282,2.614,2.614,0,0,1-2.531-1.41,9.587,9.587,0,0,1-.82-4.468,9.468,9.468,0,0,1,.82-4.475,2.536,2.536,0,0,1,2.462-1.408,2.835,2.835,0,0,1,1.269.244,3.408,3.408,0,0,1,.913.644,4.2,4.2,0,0,1,.677.97,9.985,9.985,0,0,1,.529,1.177l4.393-1.776a11.088,11.088,0,0,0-1.4-2.79,5.888,5.888,0,0,0-1.889-1.717,8.682,8.682,0,0,0-4.527-1.26,7.577,7.577,0,0,0-6.178,2.812,11.751,11.751,0,0,0-2.286,7.614,14.894,14.894,0,0,0,.5,3.976,9.647,9.647,0,0,0,1.535,3.292,7.4,7.4,0,0,0,2.656,2.253,8.4,8.4,0,0,0,3.836.83,8,8,0,0,0,4.46-1.147,8.1,8.1,0,0,0,1.716-1.591,16.317,16.317,0,0,0,1.719-2.621l-4.034-2.361c-.239.418-.492.8-.714,1.2" transform="translate(-1276.318 -477.673)"/><path class="b" d="M1401.076,490.019v-4.512h-3.635v-6.362h-5.2v6.362h-2.572v4.512h2.572v11.123a4.607,4.607,0,0,0,1.313,3.608,5.189,5.189,0,0,0,3.568,1.162c.429,0,.825,0,1.182-.016s.656-.042.93-.054.538-.059.822-.1.616-.109,1.024-.2v-4.615l-1.277.322a4.347,4.347,0,0,1-1.177.155,2.022,2.022,0,0,1-.862-.155c-.212-.081-.318-.341-.318-.773V490.019Z" transform="translate(-1276.941 -477.673)"/><path class="b" d="M1275.259,510.816h4.7a2.424,2.424,0,0,1,2.379,2.435v4.9a2.423,2.423,0,0,1-2.379,2.434h-4.7a2.4,2.4,0,0,1-2.351-2.434v-4.9a2.4,2.4,0,0,1,2.351-2.435" transform="translate(-1272.908 -477.673)"/><path class="b" d="M1287.743,510.816h4.732a2.4,2.4,0,0,1,2.35,2.435v4.9a2.4,2.4,0,0,1-2.35,2.434h-4.732a2.4,2.4,0,0,1-2.35-2.434v-4.9a2.4,2.4,0,0,1,2.35-2.435" transform="translate(-1273.339 -477.673)"/><path class="b" d="M1300.228,510.816h4.734a2.4,2.4,0,0,1,2.35,2.435v4.9a2.4,2.4,0,0,1-2.35,2.434h-4.734a2.4,2.4,0,0,1-2.349-2.434v-4.9a2.4,2.4,0,0,1,2.349-2.435" transform="translate(-1273.771 -477.673)"/><path class="b" d="M1315.817,519.778h1.236c2.046,0,2.274-2.174,2.274-3.958,0-1.922-.12-3.984-2.274-3.984h-1.236Zm-1.185-8.945h2.571c2.985,0,3.361,2.23,3.361,4.973,0,2.508-.6,4.975-3.241,4.975h-2.691Z" transform="translate(-1274.349 -477.673)"/><path class="b" d="M1325.755,516.267v-.405c0-.835-.256-1.825-1.25-1.825-1.184,0-1.319,1.505-1.319,1.951v.279Zm-2.608.919c0,1.144,0,2.87,1.385,2.87,1.075,0,1.223-1.17,1.223-1.726h1.132a2.5,2.5,0,0,1-2.421,2.645c-1.762,0-2.5-1.268-2.5-3.831,0-1.867.35-4.025,2.57-4.025,2.2,0,2.407,1.99,2.407,3.592v.475Z" transform="translate(-1274.602 -477.673)"/><path class="b" d="M1331.48,515.5c0-.948-.243-1.463-1.063-1.463a1.051,1.051,0,0,0-1.17,1.142c0,.878.887,1.045,1.776,1.352.874.307,1.76.627,1.76,2.1a2.144,2.144,0,0,1-2.326,2.341,2.265,2.265,0,0,1-2.475-2.646h1.13c0,.906.242,1.727,1.345,1.727a1.147,1.147,0,0,0,1.2-1.24c0-1-.888-1.212-1.762-1.519s-1.776-.57-1.776-2.118a2.051,2.051,0,0,1,2.3-2.061c2.1,0,2.177,1.5,2.193,2.382Z" transform="translate(-1274.81 -477.673)"/><path class="b" d="M1334.141,513.313h1.132v7.468h-1.132Zm0-2.48h1.132v1.338h-1.132Z" transform="translate(-1275.023 -477.673)"/><path class="b" d="M1337.819,517.046c0,1.212.175,2.732,1.307,2.732,1.222,0,1.466-1.2,1.466-2.732,0-1.448-.243-2.925-1.454-2.925-1.049,0-1.319,1.143-1.319,2.925m3.836,3.261c0,2.228-1,3.037-2.448,3.037a2.1,2.1,0,0,1-2.369-1.866h1.129a1.024,1.024,0,0,0,1.16.947c1.45,0,1.4-1.157,1.4-1.672v-.975h-.027a1.705,1.705,0,0,1-1.628,1c-2.1,0-2.232-2.745-2.232-3.735,0-2.019.525-3.928,2.355-3.928a1.625,1.625,0,0,1,1.558,1.142h.027v-.947h1.078Z" transform="translate(-1275.109 -477.673)"/><path class="b" d="M1343.368,513.313h1.074v.877h.027a1.916,1.916,0,0,1,1.748-1.072c1.9,0,1.9,1.49,1.9,2.368v5.295h-1.132v-5.155c0-.571-.039-1.5-1.06-1.5a1.413,1.413,0,0,0-1.427,1.5v5.155h-1.129Z" transform="translate(-1275.342 -477.673)"/><path class="b" d="M1353.473,514.232h-1.048v-.919h1.048v-.879c0-1.128.47-1.713,1.56-1.713h.82v1h-.522c-.487,0-.727.194-.727.709v.879h1.238v.919H1354.6v6.549h-1.131Z" transform="translate(-1275.654 -477.673)"/><path class="b" d="M1360.419,517.046c0-1.616-.228-3.009-1.442-3.009-1.141,0-1.384,1.393-1.384,3.009s.229,3.01,1.384,3.01c1.2,0,1.442-1.392,1.442-3.01m-1.412-3.928c2.084,0,2.595,1.825,2.595,3.928s-.526,3.929-2.595,3.929c-2.086,0-2.6-1.824-2.6-3.929s.525-3.928,2.6-3.928" transform="translate(-1275.792 -477.673)"/><path class="b" d="M1362.958,513.313h1.129v1.115h.029c.322-.711.752-1.31,1.56-1.31a1.1,1.1,0,0,1,.5.083v1.143a2.952,2.952,0,0,0-.6-.056,1.638,1.638,0,0,0-1.481,1.769v4.724h-1.129Z" transform="translate(-1276.018 -477.673)"/><path class="b" d="M1371.779,519.778h1.237c2.044,0,2.274-2.174,2.274-3.958,0-1.922-.122-3.984-2.274-3.984h-1.237Zm-1.184-8.945h2.568c2.987,0,3.364,2.23,3.364,4.973,0,2.508-.606,4.975-3.242,4.975h-2.69Z" transform="translate(-1276.282 -477.673)"/><path class="b" d="M1378.245,513.313h1.13v7.468h-1.13Zm0-2.48h1.13v1.338h-1.13Z" transform="translate(-1276.546 -477.673)"/><path class="b" d="M1381.924,517.046c0,1.212.174,2.732,1.3,2.732,1.225,0,1.467-1.2,1.467-2.732,0-1.448-.242-2.925-1.453-2.925-1.051,0-1.318,1.143-1.318,2.925m3.834,3.261c0,2.228-1,3.037-2.449,3.037a2.1,2.1,0,0,1-2.367-1.866h1.13a1.021,1.021,0,0,0,1.157.947c1.453,0,1.4-1.157,1.4-1.672v-.975h-.029a1.706,1.706,0,0,1-1.628,1c-2.1,0-2.231-2.745-2.231-3.735,0-2.019.525-3.928,2.352-3.928a1.627,1.627,0,0,1,1.561,1.142h.027v-.947h1.077Z" transform="translate(-1276.632 -477.673)"/><path class="b" d="M1387.541,513.313h1.129v7.468h-1.129Zm0-2.48h1.129v1.338h-1.129Z" transform="translate(-1276.868 -477.673)"/><path class="b" d="M1390.623,511.14h1.131v2.173h1.251v.919h-1.251v4.792c0,.6.147.837.739.837a3.346,3.346,0,0,0,.5-.041v.961a4.559,4.559,0,0,1-.914.084c-1.169,0-1.452-.5-1.452-1.478v-5.155h-1.048v-.919h1.048Z" transform="translate(-1276.938 -477.673)"/><path class="b" d="M1397.218,516.711c-.417.461-1.412.557-1.923.879a1.205,1.205,0,0,0-.551,1.184c0,.753.255,1.282,1.022,1.282a1.491,1.491,0,0,0,1.452-1.421Zm-3.483-1.141c0-1.7.7-2.452,2.421-2.452,2.192,0,2.192,1.366,2.192,2.145v4.166c0,.307,0,.6.349.6a.4.4,0,0,0,.27-.07v.837a3.939,3.939,0,0,1-.658.07c-.432,0-.97,0-1.024-.963h-.026a2.028,2.028,0,0,1-1.736,1.073c-1.344,0-1.963-.835-1.963-2.173a1.931,1.931,0,0,1,1.359-2.063l1.519-.473c.82-.266.82-.5.82-1.127a1.02,1.02,0,0,0-1.155-1.1c-1.239,0-1.239,1.2-1.239,1.462v.07Z" transform="translate(-1277.075 -477.673)"/><rect class="b" width="1.131" height="9.947" transform="translate(122.873 33.16)"/><path class="b" d="M1405.931,482.859h.8a1.241,1.241,0,0,0,.781-.178.576.576,0,0,0,.209-.468.59.59,0,0,0-.379-.557,1.992,1.992,0,0,0-.661-.073h-.749Zm-.657,2.38V481.01h1.4a3.323,3.323,0,0,1,1.04.117,1.022,1.022,0,0,1,.514.409,1.118,1.118,0,0,1,.19.62,1.15,1.15,0,0,1-.32.807,1.242,1.242,0,0,1-.847.386,1.07,1.07,0,0,1,.347.223,4.818,4.818,0,0,1,.6.838l.5.829h-.8l-.362-.667a3.413,3.413,0,0,0-.689-.984.819.819,0,0,0-.527-.146h-.388v1.8Zm1.663-5.453a3.149,3.149,0,0,0-1.555.424,3,3,0,0,0-1.185,1.214,3.377,3.377,0,0,0-.009,3.271,3.054,3.054,0,0,0,1.175,1.213,3.07,3.07,0,0,0,3.147,0,3.032,3.032,0,0,0,1.171-1.213,3.385,3.385,0,0,0-.007-3.271,2.98,2.98,0,0,0-1.185-1.214,3.158,3.158,0,0,0-1.553-.424m0-.651a3.777,3.777,0,0,1,1.865.508,3.553,3.553,0,0,1,1.418,1.454,4.066,4.066,0,0,1,.007,3.923,3.573,3.573,0,0,1-1.4,1.455,3.691,3.691,0,0,1-3.775,0,3.6,3.6,0,0,1-1.406-1.455,4.049,4.049,0,0,1,.008-3.923,3.563,3.563,0,0,1,1.42-1.454,3.777,3.777,0,0,1,1.865-.508" transform="translate(-1277.406 -477.673)"/></g></svg>