<svg xmlns="http://www.w3.org/2000/svg" xmlns:xlink="http://www.w3.org/1999/xlink" width="158.524" height="50.006" viewBox="0 0 158.524 50.006"><defs><style>.a{fill:#4d4e4e;}.b{fill:#060707;}.c{opacity:0.689;}.d{fill:#090909;}.e{clip-path:url(#a);}.f{clip-path:url(#b);}.g{clip-path:url(#c);}</style><clipPath id="a"><path class="a" d="M513.009,484.178l-7.082,18.334,1.162,2.94,7.93-21.274Z" transform="translate(-505.927 -484.178)"/></clipPath><clipPath id="b"><path class="b" d="M550.175,472.246a3.594,3.594,0,0,1-2.093.626,3.982,3.982,0,0,1-1.469-.294q-.739-.3-1.485-.657t-1.528-.658a4.473,4.473,0,0,0-1.625-.3,4.822,4.822,0,0,0-2.293.524,6.205,6.205,0,0,0-1.892,1.676v3.318a5.489,5.489,0,0,1,1.854-1.922,4.349,4.349,0,0,1,2.163-.542,3.707,3.707,0,0,1,1.414.294c.471.2.96.412,1.471.642s1.049.444,1.625.64a5.762,5.762,0,0,0,1.881.3,3.591,3.591,0,0,0,2.2-.673,7.138,7.138,0,0,0,1.526-1.525v-3.32a7.009,7.009,0,0,1-1.751,1.872" transform="translate(-537.789 -470.374)"/></clipPath><clipPath id="c"><path class="b" d="M550.175,477.418a3.608,3.608,0,0,1-2.093.625,3.834,3.834,0,0,1-1.469-.3c-.492-.194-.987-.414-1.485-.656s-1.009-.456-1.528-.654a4.538,4.538,0,0,0-1.625-.3,4.822,4.822,0,0,0-2.293.525,6.2,6.2,0,0,0-1.892,1.675v3.319a5.485,5.485,0,0,1,1.854-1.921,4.371,4.371,0,0,1,2.163-.543,3.707,3.707,0,0,1,1.414.294c.471.2.96.412,1.471.642s1.049.444,1.625.64a5.788,5.788,0,0,0,1.881.3,3.592,3.592,0,0,0,2.2-.675,7.1,7.1,0,0,0,1.526-1.527v-3.317a7.015,7.015,0,0,1-1.751,1.873" transform="translate(-537.789 -475.545)"/></clipPath></defs><g class="c"><path class="d" d="M505.015,516.882a1.016,1.016,0,0,0-1.138-.973c-.518,0-1.036.2-1.036.816,0,.589.737.671,1.479.848s1.469.442,1.469,1.376c0,1.017-.959,1.43-1.8,1.43a1.677,1.677,0,0,1-1.9-1.684h.58c0,.8.645,1.146,1.34,1.146.556,0,1.169-.178,1.169-.867,0-.658-.737-.77-1.471-.941s-1.477-.386-1.477-1.262c0-.971.833-1.394,1.67-1.394a1.5,1.5,0,0,1,1.7,1.505Z" transform="translate(-498.809 -470.374)"/><rect class="d" width="0.616" height="4.776" transform="translate(14.202 45.111)"/><path class="d" d="M525.227,519.664a1.8,1.8,0,0,1-1.482.716,2.26,2.26,0,0,1-2.191-2.411c0-1.392.736-2.592,2.191-2.592a1.8,1.8,0,0,1,1.982,1.585h-.611a1.261,1.261,0,0,0-1.371-1.053c-1.111,0-1.578,1-1.578,2.026a1.7,1.7,0,0,0,1.578,1.906,1.419,1.419,0,0,0,1.482-1.558h-1.473v-.537h2.021v2.515h-.387Z" transform="translate(-499.482 -470.374)"/><path class="d" d="M533.534,515.485h.652l2.426,3.871h.011v-3.871h.584v4.776h-.675l-2.4-3.828h-.013v3.828h-.581Z" transform="translate(-499.896 -470.374)"/><path class="d" d="M546.281,515.485h.674l1.8,4.776h-.673l-.506-1.436H545.63l-.518,1.436h-.631Zm-.457,2.8h1.559l-.768-2.226H546.6Z" transform="translate(-500.274 -470.374)"/><path class="d" d="M556.472,516.026h-1.534v-.541h3.684v.541h-1.538v4.234h-.613Z" transform="translate(-500.635 -470.374)"/><path class="d" d="M569.64,518.536a1.851,1.851,0,0,1-3.7,0v-3.051h.614v3.051a1.168,1.168,0,0,0,1.275,1.3c.775,0,1.2-.461,1.2-1.3v-3.051h.614Z" transform="translate(-501.015 -470.374)"/><path class="d" d="M577.469,515.486h2.172a1.24,1.24,0,0,1,1.4,1.255,1.143,1.143,0,0,1-.8,1.207v.014c.54.105.645.516.69.977a2.53,2.53,0,0,0,.271,1.322h-.685c-.173-.193-.077-.71-.165-1.176-.064-.467-.175-.864-.771-.864h-1.493v2.04h-.617Zm1.891,2.207c.576,0,1.064-.161,1.064-.853a.736.736,0,0,0-.816-.814h-1.523v1.667Z" transform="translate(-501.413 -470.374)"/><path class="d" d="M588.732,515.485h3.18v.541h-2.567v1.514h2.391v.533h-2.391v1.655h2.584v.533h-3.2Z" transform="translate(-501.802 -470.374)"/><path class="d" d="M610.691,516.882a1.017,1.017,0,0,0-1.14-.973c-.518,0-1.033.2-1.033.816,0,.589.735.671,1.477.848s1.472.442,1.472,1.376c0,1.017-.964,1.43-1.8,1.43a1.678,1.678,0,0,1-1.9-1.684h.578c0,.8.647,1.146,1.344,1.146.554,0,1.165-.178,1.165-.867,0-.658-.736-.77-1.472-.941s-1.475-.386-1.475-1.262c0-.971.834-1.394,1.671-1.394a1.5,1.5,0,0,1,1.7,1.505Z" transform="translate(-502.46 -470.374)"/><path class="d" d="M620.283,515.485h.677l1.8,4.776h-.678l-.5-1.436h-1.951l-.515,1.436h-.631Zm-.459,2.8h1.562l-.772-2.226H620.6Z" transform="translate(-502.83 -470.374)"/><path class="d" d="M630.063,515.485h.613v4.243h2.436v.533h-3.049Z" transform="translate(-503.23 -470.374)"/><path class="d" d="M642.4,515.377a2.52,2.52,0,1,1-2.209,2.5,2.258,2.258,0,0,1,2.209-2.5m0,4.464c1.124,0,1.592-1.007,1.592-1.968s-.468-1.965-1.592-1.965-1.594,1-1.594,1.965.469,1.968,1.594,1.968" transform="translate(-503.58 -470.374)"/><path class="d" d="M652.214,515.485h.652l2.423,3.871h.012v-3.871h.585v4.776h-.674l-2.4-3.828h-.014v3.828h-.581Z" transform="translate(-503.995 -470.374)"/><path class="b" d="M508.84,499.318l-6-15.155h-4.15l8.769,22.245h2.774l8.65-22.245h-4.147Z" transform="translate(-498.692 -470.374)"/><path class="b" d="M580.663,497.3a6.576,6.576,0,0,0,0-13.14h-8.694v22.245h3.9v-7.454l8.073,7.454h5.813l-9.913-9.1Zm0-4.037h-4.795V488.2h4.795a2.537,2.537,0,0,1,0,5.07" transform="translate(-501.223 -470.374)"/><path class="b" d="M613.153,499.318l-6-15.155h-4.152l8.773,22.245h2.771l8.65-22.245H619.05Z" transform="translate(-502.295 -470.374)"/><path class="b" d="M655.69,488.2v-4.034H640.917v22.245H655.69v-4.036H644.812V497.3h7.936v-4.037h-7.936V488.2Z" transform="translate(-503.605 -470.374)"/><path class="b" d="M550.03,484.162v13.412a4.863,4.863,0,0,1-4.768,4.824.147.147,0,0,1-.035,0v0h-.041v0a.143.143,0,0,1-.036,0,4.862,4.862,0,0,1-4.767-4.824V484.162h-3.87v13.3a8.807,8.807,0,0,0,8.636,8.946c.019,0,.037,0,.056,0s.038,0,.055,0a8.807,8.807,0,0,0,8.638-8.946v-13.3Z" transform="translate(-499.999 -470.374)"/><path class="b" d="M658.708,484.008v-2.164h-.749V481.4h2v.442h-.745v2.164Z" transform="translate(-504.193 -470.374)"/><path class="b" d="M660.365,484.008V481.4h.761l.456,1.779.454-1.779h.764v2.606h-.475v-2.052l-.5,2.052h-.487l-.5-2.052v2.052Z" transform="translate(-504.276 -470.374)"/><g transform="translate(6.985 13.804)"><path class="a" d="M513.009,484.178l-7.082,18.334,1.162,2.94,7.93-21.274Z" transform="translate(-505.927 -484.178)"/><g class="e"><path class="a" d="M.026.039,23.052-.184l-.146,14.722L-.12,14.761Z" transform="matrix(0.291, -0.957, 0.957, 0.291, -5.766, 19.484)"/></g></g><g transform="translate(37.746 0)"><path class="b" d="M550.175,472.246a3.594,3.594,0,0,1-2.093.626,3.982,3.982,0,0,1-1.469-.294q-.739-.3-1.485-.657t-1.528-.658a4.473,4.473,0,0,0-1.625-.3,4.822,4.822,0,0,0-2.293.524,6.205,6.205,0,0,0-1.892,1.676v3.318a5.489,5.489,0,0,1,1.854-1.922,4.349,4.349,0,0,1,2.163-.542,3.707,3.707,0,0,1,1.414.294c.471.2.96.412,1.471.642s1.049.444,1.625.64a5.762,5.762,0,0,0,1.881.3,3.591,3.591,0,0,0,2.2-.673,7.138,7.138,0,0,0,1.526-1.525v-3.32a7.009,7.009,0,0,1-1.751,1.872" transform="translate(-537.789 -470.374)"/><g class="f"><path class="b" d="M.035.024l11.22-.138-.195,15.4-11.22.138Z" transform="translate(-2.131 5.227) rotate(-67.35)"/></g></g><g transform="translate(37.746 5.171)"><path class="b" d="M550.175,477.418a3.608,3.608,0,0,1-2.093.625,3.834,3.834,0,0,1-1.469-.3c-.492-.194-.987-.414-1.485-.656s-1.009-.456-1.528-.654a4.538,4.538,0,0,0-1.625-.3,4.822,4.822,0,0,0-2.293.525,6.2,6.2,0,0,0-1.892,1.675v3.319a5.485,5.485,0,0,1,1.854-1.921,4.371,4.371,0,0,1,2.163-.543,3.707,3.707,0,0,1,1.414.294c.471.2.96.412,1.471.642s1.049.444,1.625.64a5.788,5.788,0,0,0,1.881.3,3.592,3.592,0,0,0,2.2-.675,7.1,7.1,0,0,0,1.526-1.527v-3.317a7.015,7.015,0,0,1-1.751,1.873" transform="translate(-537.789 -475.545)"/><g class="g"><path class="b" d="M.035.024l11.22-.138-.195,15.4-11.22.138Z" transform="translate(-2.132 5.226) rotate(-67.35)"/></g></g></g></svg>