<svg xmlns="http://www.w3.org/2000/svg" width="98.32" height="55.981" viewBox="0 0 98.32 55.981"><defs><style>.a{opacity:0.689;}.b{fill:#060707;}</style></defs><g class="a"><rect class="b" width="1.66" height="20.201" rx="0.83" transform="translate(15.465 25.989)"/><rect class="b" width="1.66" height="3.18" rx="0.83" transform="translate(15.465 12.633)"/><rect class="b" width="1.66" height="14.602" rx="0.83" transform="translate(11.599 32.675)"/><rect class="b" width="1.66" height="3.091" rx="0.83" transform="translate(11.599 8.176)"/><rect class="b" width="1.66" height="6.953" rx="0.83" transform="translate(7.733 39.785)"/><rect class="b" width="1.66" height="4.048" rx="0.83" transform="translate(7.733 0)"/><rect class="b" width="1.66" height="5.144" rx="0.83" transform="translate(3.867 41.333)"/><rect class="b" width="1.66" height="6.264" rx="0.83" transform="translate(0 45.659)"/><rect class="b" width="1.66" height="25.747" rx="0.83" transform="translate(19.332 17.128)"/><rect class="b" width="1.66" height="16.088" rx="0.83" transform="translate(23.198 24.284)"/><rect class="b" width="1.66" height="16.462" rx="0.83" transform="translate(27.065 24.679)"/><rect class="b" width="1.66" height="17.241" rx="0.83" transform="translate(30.931 25.382)"/><rect class="b" width="1.66" height="18.378" rx="0.83" transform="translate(34.796 26.442)"/><rect class="b" width="1.66" height="19.891" rx="0.83" transform="translate(38.663 27.386)"/><rect class="b" width="1.66" height="21.535" rx="0.83" transform="translate(42.53 28.28)"/><rect class="b" width="1.66" height="23.524" rx="0.83" transform="translate(46.396 28.868)"/><rect class="b" width="1.66" height="25.587" rx="0.83" transform="translate(50.263 28.947)"/><rect class="b" width="1.66" height="27.543" rx="0.83" transform="translate(54.129 27.986)"/><rect class="b" width="1.66" height="29.763" rx="0.83" transform="translate(57.995 25.71)"/><rect class="b" width="1.66" height="30.582" rx="0.83" transform="translate(61.862 23.814)"/><rect class="b" width="1.66" height="35.348" rx="0.83" transform="translate(65.728 17.637)"/><rect class="b" width="1.66" height="40.077" rx="0.83" transform="translate(69.595 12.218)"/><rect class="b" width="1.66" height="44.863" rx="0.83" transform="translate(73.461 8.148)"/><rect class="b" width="1.66" height="48.494" rx="0.83" transform="translate(77.327 7.487)"/><rect class="b" width="1.66" height="20.127" rx="0.83" transform="translate(81.194 7.122)"/><rect class="b" width="1.66" height="6.486" rx="0.83" transform="translate(81.194 43.383)"/><rect class="b" width="1.66" height="4.523" rx="0.83" transform="translate(81.194 51.306)"/><rect class="b" width="1.66" height="20.314" rx="0.83" transform="translate(85.06 8.184)"/><rect class="b" width="1.66" height="5.894" rx="0.83" transform="translate(85.06 45.89)"/><rect class="b" width="1.66" height="19.057" rx="0.83" transform="translate(88.926 12.218)"/><rect class="b" width="1.66" height="5.557" rx="0.83" transform="translate(88.927 47.62)"/><rect class="b" width="1.66" height="10.481" rx="0.83" transform="translate(92.793 21.362)"/><rect class="b" width="1.66" height="2.312" rx="0.83" transform="translate(92.793 48.008)"/><rect class="b" width="1.66" height="2.354" rx="0.83" transform="translate(96.66 27.986)"/></g></svg>