<svg xmlns="http://www.w3.org/2000/svg" width="78.777" height="64.979" viewBox="0 0 78.777 64.979"><defs><style>.a{opacity:0.689;}.b{fill:#1a1818;}</style></defs><g class="a"><path d="M184.056,143.212h5.976v11.215h11.232V143.236H207.3v28.327h-6.012V160.319H190.126v11.217h-6.07Z" transform="translate(-156.395 -143.212)"/><path d="M235.881,143.242V148.7h-14.7v5.842h12.922v5.572H221.168v5.973h14.874v5.466H215.175V143.242Z" transform="translate(-157.469 -143.212)"/><path d="M163.864,148.93h-8.459v-5.682h22.821v5.635h-8.361v22.674h-6Z" transform="translate(-155.405 -143.212)"/><path d="M201.713,176.5c3.185,0,6.311-.221,9.395.06,3.269.3,4.974,2.828,4.642,6.183a4.35,4.35,0,0,1-2.881,3.842c-.715.29-1.473.468-2.3.725l5.815,7.873a1.955,1.955,0,0,1-2.347-.821c-1.459-2.149-3.049-4.2-4.619-6.269a1.5,1.5,0,0,0-.946-.611c-1.755-.06-3.514-.028-5.4-.028V195.2h-1.354Zm1.362,9.615c2.483,0,4.913.01,7.344-.012a3.321,3.321,0,0,0,.979-.255,4.1,4.1,0,0,0,3.089-4.261,3.69,3.69,0,0,0-3.4-3.7c-2.637-.255-5.314-.061-8.008-.061Z" transform="translate(-157.004 -143.212)"/><path d="M222.376,176.379h1.271V186.1c1.691-1.505,3.193-2.838,4.69-4.176,1.822-1.628,3.61-3.3,5.477-4.868a8.461,8.461,0,0,1,1.959-.938l.21.385c-3.6,3.263-7.2,6.525-10.893,9.877l11.4,8.786a3.126,3.126,0,0,1-2.658-.407c-3.113-2.421-6.277-4.77-9.424-7.145-.181-.136-.37-.259-.708-.5V195.2h-1.329Z" transform="translate(-157.718 -143.212)"/><path d="M165.412,188.279v6.933l-1.212.068V176.531a75.05,75.05,0,0,1,8.532.069,5.148,5.148,0,0,1,4.7,5.4,5.425,5.425,0,0,1-4.512,5.832,49.709,49.709,0,0,1-6.25.447C166.3,188.3,165.925,188.279,165.412,188.279Zm.037-1.5a65.677,65.677,0,0,0,6.67-.048,4.462,4.462,0,0,0,4.03-4.28,4.067,4.067,0,0,0-3.62-4.541,53.466,53.466,0,0,0-7.08-.067Z" transform="translate(-155.709 -143.212)"/><path d="M178.652,195.139c.855-1.936,1.7-3.87,2.561-5.8q2.7-6.049,5.417-12.091c.21-.467.331-.947,1.031-.948s.815.474,1.024.944q3.784,8.479,7.57,16.958c.138.308.257.625.385.941-1.045.39-1.526-.029-1.894-.97-.671-1.717-1.436-3.4-2.23-5.057a1.31,1.31,0,0,0-.941-.652c-2.642-.052-5.287-.011-7.929-.043a.981.981,0,0,0-1.056.725c-.725,1.733-1.538,3.428-2.237,5.171C180.02,195.151,179.586,195.5,178.652,195.139ZM187.6,177.8l-4.108,9.373h8.2Z" transform="translate(-156.208 -143.212)"/><g transform="translate(8.035 58.712)"><path class="b" d="M163.727,208.037v-6.113h1.226v2.331h2.294v-2.331h1.226v6.113h-1.226v-2.729h-2.294v2.729Z" transform="translate(-163.727 -201.924)"/><path class="b" d="M173.49,207.484a2.344,2.344,0,0,1-3.355,0,2.882,2.882,0,0,1,0-3.4,2.321,2.321,0,0,1,3.355,0,2.882,2.882,0,0,1,0,3.4Zm-.912-.653a2.176,2.176,0,0,0,0-2.094.993.993,0,0,0-1.54,0,2.163,2.163,0,0,0,0,2.094.989.989,0,0,0,1.54,0Z" transform="translate(-163.929 -201.924)"/><path class="b" d="M174.669,204.4v-.842h.609V202.3h1.13v1.261h.709v.842h-.709v2.389a.554.554,0,0,0,.068.346.722.722,0,0,0,.416.069l.11,0,.115-.007v.884l-.541.021a1.417,1.417,0,0,1-1.105-.291.882.882,0,0,1-.192-.626V204.4Z" transform="translate(-164.105 -201.924)"/><path class="b" d="M180.88,203.608a1.789,1.789,0,0,1,.754.669,2.268,2.268,0,0,1,.348.934,5.946,5.946,0,0,1,.038.9h-3.178a1.1,1.1,0,0,0,.456.954,1.133,1.133,0,0,0,.629.169.943.943,0,0,0,.634-.207,1,1,0,0,0,.235-.311h1.165a1.488,1.488,0,0,1-.424.817,2.081,2.081,0,0,1-1.642.66,2.328,2.328,0,0,1-1.537-.557,2.23,2.23,0,0,1-.666-1.809,2.5,2.5,0,0,1,.6-1.8,2.065,2.065,0,0,1,1.561-.627A2.4,2.4,0,0,1,180.88,203.608Zm-1.708,1.021a1.243,1.243,0,0,0-.3.7h1.966a1,1,0,0,0-.3-.715.98.98,0,0,0-.677-.243A.89.89,0,0,0,179.172,204.629Z" transform="translate(-164.209 -201.924)"/><path class="b" d="M184.023,208.037h-1.141v-6.113h1.141Z" transform="translate(-164.389 -201.924)"/><path class="b" d="M186.178,206.594a.809.809,0,0,0,.156.448,1.044,1.044,0,0,0,.789.237,1.175,1.175,0,0,0,.538-.1.333.333,0,0,0,.2-.311.337.337,0,0,0-.16-.3,6.325,6.325,0,0,0-1.194-.357,2.435,2.435,0,0,1-1.049-.477,1.054,1.054,0,0,1-.3-.813,1.429,1.429,0,0,1,.476-1.076,1.869,1.869,0,0,1,1.338-.45,2.388,2.388,0,0,1,1.334.338,1.461,1.461,0,0,1,.592,1.167h-1.141a.723.723,0,0,0-.125-.361.77.77,0,0,0-.642-.24.905.905,0,0,0-.533.12.349.349,0,0,0-.158.282.31.31,0,0,0,.169.295,7.219,7.219,0,0,0,1.191.327,2.168,2.168,0,0,1,1.022.5,1.164,1.164,0,0,1,.337.851,1.394,1.394,0,0,1-.484,1.1,2.822,2.822,0,0,1-3.018-.025,1.489,1.489,0,0,1-.491-1.147Z" transform="translate(-164.462 -201.924)"/></g></g></svg>