<svg xmlns="http://www.w3.org/2000/svg" width="1107.903" height="970.581" viewBox="0 0 1107.903 970.581"><defs><style>.a{fill:#e21200;}</style></defs><path class="a" d="M631.386,593.481a156.961,156.961,0,0,1-16.776,4.043c-41.955,7.122-24.685-48.935-19.1-73.038C635.167,351.577,720.239,192.8,787.723,40.473q33.582-76.06,70.363-147.759c24.043-47.189,98.011-147.848,124-187.971,11.514-17.911,26.226-26.023,46.228-38.5,24.715-15.468,36.577-18.724,63.21-22.94,39.018-6.164,89.289,6.222,79.606,53.295-4.737,23.172-3.138,58.3-4.855,82.166-10.438,141.218-40.036,245.19-48.585,320.088q-6.1,43.613-12.152,87.574c-.087,0,46.724-73.822,68.3-105.542,12.62-18.637,25.644-37.914,40.268-57.22,88.766-117.144,173.431-239.375,283.164-338.143a226.646,226.646,0,0,1,112.607-54.459c54.864-9.564,56.957,3.489,56.957,3.489,11.107,8.229,10.206,20.557,15.847,32.332,2.094,3.082,12.415,5.5,12.445,11.891.2,48.527-36.868,116.534-60.972,158.924-96.849,170.119-153.4,361.636-263.885,534.778-17.851,27.912-45.648,70.217-74.286,88.564-6.919-3.257-39.136,15.758-7.53-102.2,9.45-35.007,22.3-69.547,35.589-102.373,2.645-6.484,5.173-13,7.646-19.538,2.5-6.775,5.088-14.246,7.676-22.446,21.98-61.059,25.818-59.925,50.735-120.342,11.891-28.814,19.161-50.155,31.46-78.445,11.106-25.586,60.766-136.768,65.156-163.14-18.695,13.316-86.381,103.013-100.687,120.748q-25.208,31.316-49.688,63.442-28.436,37.375-55.883,75.916c-15.175,21.369-38.116,28.493-49.282,51.811-9.943,11.485-53.76,63.5-63.034,75.537-18.84,24.249-2.587,8.751-21.487,33.117-10,12.968-15.758,18.724-28.465,29.453-22.881,19.393-43.438,55.331-72.4,65.419-10.117,3.547-45.705,43.41-49.02,33.553-12.271-35.413-2.27-75.944,1.192-97.285,10.379-63.559.408-108.131,13.666-176.079,6.163-54.137,2.791-88.272,13.141-141.189a412.166,412.166,0,0,0,7.211-70.739c.234-15.963,1.919-43.09,3.489-53.15-4.826,6.135-11.892,21.6-19.218,31.547-7.355,10-20.121,40.793-31.141,62.976-39.542,79.87-95.889,219.342-136.71,302.41C832.15,292.9,813.686,327.24,799.616,362.771c-5.5,13.811-10.846,29.395-15.44,43.5-3.256,10.089-7.85,19.742-12.5,29.424-18.985,39.6-33.117,69.344-52.218,109.612-13.985,29.6-88.07,48.178-88.07,48.178" transform="translate(-587.225 372.437)"/></svg>